# This file uses centimeters as units for non-parametric coordinates.

mtllib Guard.mtl
g default
v -4.890971 -1.672048 1.398831
v -3.012694 -1.860218 2.749234
v -1.506347 -1.741722 3.433603
v -0.000000 -1.741722 3.433603
v 1.506347 -1.741722 3.433603
v 3.012693 -1.860217 2.749234
v 4.890970 -1.672048 1.398831
v -4.519041 1.048481 0.358399
v -3.012694 1.048481 0.358399
v -1.506347 1.048481 0.358399
v -0.000000 1.048481 0.358399
v 1.506347 1.048481 0.358399
v 3.012693 1.048481 0.358399
v 4.519040 1.048481 0.358399
v -4.519041 1.048481 -0.358399
v -3.012694 1.048481 -0.358399
v -1.506347 1.048481 -0.358399
v -0.000000 1.048481 -0.358399
v 1.506347 1.048481 -0.358399
v 3.012693 1.048481 -0.358399
v 4.519040 1.048481 -0.358399
v -4.519041 -1.048481 -0.358399
v -3.012694 -1.044969 -0.350007
v -1.506347 -1.029380 -0.312763
v -0.000000 -1.029380 -0.312763
v 1.506347 -1.029380 -0.312763
v 3.012693 -1.044969 -0.350007
v 4.519040 -1.048481 -0.358399
v -2.259521 -0.979948 0.522132
v -3.765868 -1.039933 0.378821
v -0.753174 -0.979948 0.522132
v 0.753173 -0.979948 0.522132
v 2.259520 -0.979948 0.522132
v 3.765867 -1.039933 0.378821
vt 0.375000 0.000000
vt 0.416667 0.000000
vt 0.458333 0.000000
vt 0.500000 0.000000
vt 0.541667 0.000000
vt 0.583333 0.000000
vt 0.625000 0.000000
vt 0.375000 0.250000
vt 0.416667 0.250000
vt 0.458333 0.250000
vt 0.500000 0.250000
vt 0.541667 0.250000
vt 0.583333 0.250000
vt 0.625000 0.250000
vt 0.375000 0.500000
vt 0.416667 0.500000
vt 0.458333 0.500000
vt 0.500000 0.500000
vt 0.541667 0.500000
vt 0.583333 0.500000
vt 0.625000 0.500000
vt 0.375000 0.750000
vt 0.416667 0.750000
vt 0.458333 0.750000
vt 0.500000 0.750000
vt 0.541667 0.750000
vt 0.583333 0.750000
vt 0.625000 0.750000
vt 0.375000 1.000000
vt 0.416667 1.000000
vt 0.458333 1.000000
vt 0.500000 1.000000
vt 0.541667 1.000000
vt 0.583333 1.000000
vt 0.625000 1.000000
vt 0.875000 0.000000
vt 0.875000 0.250000
vt 0.125000 0.000000
vt 0.125000 0.250000
vt 0.437500 0.000000
vt 0.437500 1.000000
vt 0.395833 0.000000
vt 0.395833 1.000000
vt 0.479167 0.000000
vt 0.479167 1.000000
vt 0.520833 0.000000
vt 0.520833 1.000000
vt 0.562500 0.000000
vt 0.562500 1.000000
vt 0.604167 0.000000
vt 0.604167 1.000000
vn 0.000000 0.009778 0.999952
vn 0.000000 0.009778 0.999952
vn 0.000000 0.009778 0.999952
vn -0.879541 0.352390 0.319731
vn -0.879541 0.352390 0.319731
vn -0.879541 0.352390 0.319731
vn 0.000000 0.080458 0.996758
vn 0.000000 0.080458 0.996758
vn 0.000000 0.080458 0.996758
vn 0.000000 0.080458 0.996758
vn 0.000000 0.080458 0.996758
vn 0.000000 0.080458 0.996758
vn 0.000000 0.080458 0.996758
vn 0.000000 0.080458 0.996758
vn 0.000000 0.080458 0.996758
vn 0.866983 0.316437 0.384978
vn 0.866983 0.316437 0.384978
vn 0.866983 0.316437 0.384978
vn 0.000000 1.000000 0.000000
vn 0.000000 1.000000 0.000000
vn 0.000000 1.000000 0.000000
vn 0.000000 1.000000 0.000000
vn 0.000000 1.000000 0.000000
vn 0.000000 1.000000 0.000000
vn 0.000000 1.000000 0.000000
vn 0.000000 1.000000 0.000000
vn 0.000000 1.000000 0.000000
vn 0.000000 1.000000 0.000000
vn 0.000000 1.000000 0.000000
vn 0.000000 1.000000 0.000000
vn 0.000000 1.000000 0.000000
vn 0.000000 1.000000 0.000000
vn 0.000000 1.000000 0.000000
vn 0.000000 1.000000 0.000000
vn 0.000000 1.000000 0.000000
vn 0.000000 1.000000 0.000000
vn 0.000000 1.000000 0.000000
vn 0.000000 1.000000 0.000000
vn 0.000000 1.000000 0.000000
vn 0.000000 1.000000 0.000000
vn 0.000000 1.000000 0.000000
vn 0.000000 1.000000 0.000000
vn 0.002788 -0.002003 -0.999994
vn 0.002788 -0.002003 -0.999994
vn 0.002788 -0.002003 -0.999994
vn 0.002788 -0.002003 -0.999994
vn 0.012427 -0.012950 -0.999839
vn 0.012427 -0.012950 -0.999839
vn 0.012427 -0.012950 -0.999839
vn 0.012427 -0.012950 -0.999839
vn 0.000000 -0.021958 -0.999759
vn 0.000000 -0.021958 -0.999759
vn 0.000000 -0.021958 -0.999759
vn 0.000000 -0.021958 -0.999759
vn 0.000000 -0.021958 -0.999759
vn 0.000000 -0.021958 -0.999759
vn 0.000000 -0.021958 -0.999759
vn 0.000000 -0.021958 -0.999759
vn -0.012427 -0.012950 -0.999839
vn -0.012427 -0.012950 -0.999839
vn -0.012427 -0.012950 -0.999839
vn -0.012427 -0.012950 -0.999839
vn -0.002788 -0.002003 -0.999994
vn -0.002788 -0.002003 -0.999994
vn -0.002788 -0.002003 -0.999994
vn -0.002788 -0.002003 -0.999994
vn 0.002280 -0.999955 0.009264
vn 0.002280 -0.999955 0.009264
vn 0.002280 -0.999955 0.009264
vn -0.262051 -0.948068 -0.180268
vn -0.262051 -0.948068 -0.180268
vn -0.262051 -0.948068 -0.180268
vn 0.262051 -0.948068 -0.180268
vn 0.262051 -0.948068 -0.180268
vn 0.262051 -0.948068 -0.180268
vn 0.262051 -0.948068 -0.180268
vn 0.262051 -0.948068 -0.180268
vn 0.262051 -0.948068 -0.180268
vn 0.262051 -0.948068 -0.180268
vn 0.262051 -0.948068 -0.180268
vn 0.262051 -0.948068 -0.180268
vn 0.244941 -0.937641 -0.246644
vn 0.244941 -0.937641 -0.246644
vn 0.244941 -0.937641 -0.246644
vn 1.000000 0.000000 0.000000
vn 1.000000 0.000000 0.000000
vn 1.000000 0.000000 0.000000
vn -0.980678 0.063277 -0.185113
vn -0.980678 0.063277 -0.185113
vn -0.980678 0.063277 -0.185113
vn 0.839045 0.345471 0.420302
vn 0.839045 0.345471 0.420302
vn 0.839045 0.345471 0.420302
vn 0.353635 -0.904610 -0.237956
vn 0.353635 -0.904610 -0.237956
vn 0.353635 -0.904610 -0.237956
vn -0.244941 -0.937641 -0.246644
vn -0.244941 -0.937641 -0.246644
vn -0.244941 -0.937641 -0.246644
vn -0.866983 0.316437 0.384978
vn -0.866983 0.316437 0.384978
vn -0.866983 0.316437 0.384978
vn 0.000000 0.080458 0.996758
vn 0.000000 0.080458 0.996758
vn 0.000000 0.080458 0.996758
vn 0.008671 -0.997722 0.066894
vn 0.008671 -0.997722 0.066894
vn 0.008671 -0.997722 0.066894
vn -0.262051 -0.948068 -0.180268
vn -0.262051 -0.948068 -0.180268
vn -0.262051 -0.948068 -0.180268
vn -0.879541 0.352390 0.319731
vn -0.879541 0.352390 0.319731
vn -0.879541 0.352390 0.319731
vn 0.879541 0.352390 0.319731
vn 0.879541 0.352390 0.319731
vn 0.879541 0.352390 0.319731
vn 0.000000 -0.998252 0.059104
vn 0.000000 -0.998252 0.059104
vn 0.000000 -0.998252 0.059104
vn -0.262051 -0.948068 -0.180268
vn -0.262051 -0.948068 -0.180268
vn -0.262051 -0.948068 -0.180268
vn -0.879541 0.352390 0.319732
vn -0.879541 0.352390 0.319732
vn -0.879541 0.352390 0.319732
vn 0.879541 0.352390 0.319731
vn 0.879541 0.352390 0.319731
vn 0.879541 0.352390 0.319731
vn 0.000000 -0.998252 0.059104
vn 0.000000 -0.998252 0.059104
vn 0.000000 -0.998252 0.059104
vn -0.353635 -0.904610 -0.237956
vn -0.353635 -0.904610 -0.237956
vn -0.353635 -0.904610 -0.237956
vn -0.839045 0.345471 0.420301
vn -0.839045 0.345471 0.420301
vn -0.839045 0.345471 0.420301
vn 0.879541 0.352390 0.319731
vn 0.879541 0.352390 0.319731
vn 0.879541 0.352390 0.319731
vn -0.008671 -0.997722 0.066894
vn -0.008671 -0.997722 0.066894
vn -0.008671 -0.997722 0.066894
vn -0.274285 -0.923108 -0.269518
vn -0.274285 -0.923108 -0.269518
vn -0.274285 -0.923108 -0.269518
vn 0.000000 0.009778 0.999952
vn 0.000000 0.009778 0.999952
vn 0.000000 0.009778 0.999952
vn -0.585121 0.218657 0.780912
vn -0.585121 0.218657 0.780912
vn -0.585121 0.218657 0.780912
vn -0.002280 -0.999955 0.009264
vn -0.002280 -0.999955 0.009264
vn -0.002280 -0.999955 0.009264
vn 0.585121 0.218656 0.780912
vn 0.585121 0.218656 0.780912
vn 0.585121 0.218656 0.780912
vn 0.274285 -0.923108 -0.269518
vn 0.274285 -0.923108 -0.269518
vn 0.274285 -0.923108 -0.269518
vn 0.980678 0.063277 -0.185113
vn 0.980678 0.063277 -0.185113
vn 0.980678 0.063277 -0.185113
vn -1.000000 0.000000 0.000000
vn -1.000000 0.000000 0.000000
vn -1.000000 0.000000 0.000000
s off
g Guard TheCube
usemtl initialShadingGroup
f 8/8/1 30/42/2 9/9/3
f 29/40/4 3/3/5 10/10/6
f 10/10/7 31/44/8 11/11/9
f 11/11/10 32/46/11 12/12/12
f 12/12/13 33/48/14 13/13/15
f 6/6/16 34/50/17 13/13/18
f 8/8/19 9/9/20 16/16/21 15/15/22
f 9/9/23 10/10/24 17/17/25 16/16/26
f 10/10/27 11/11/28 18/18/29 17/17/30
f 11/11/31 12/12/32 19/19/33 18/18/34
f 12/12/35 13/13/36 20/20/37 19/19/38
f 13/13/39 14/14/40 21/21/41 20/20/42
f 15/15/43 16/16/44 23/23/45 22/22/46
f 16/16/47 17/17/48 24/24/49 23/23/50
f 17/17/51 18/18/52 25/25/53 24/24/54
f 18/18/55 19/19/56 26/26/57 25/25/58
f 19/19/59 20/20/60 27/27/61 26/26/62
f 20/20/63 21/21/64 28/28/65 27/27/66
f 22/22/67 23/23/68 30/43/69
f 29/41/70 24/24/71 3/31/72
f 24/24/73 31/45/74 3/31/75
f 25/25/76 32/47/77 4/32/78
f 26/26/79 33/49/80 5/33/81
f 27/27/82 34/51/83 6/34/84
f 14/14/85 28/36/86 21/37/87
f 22/38/88 1/1/89 8/8/90
f 2/2/91 29/40/92 9/9/93
f 23/23/94 29/41/95 2/30/96
f 30/43/97 23/23/98 2/30/99
f 9/9/100 30/42/101 2/2/102
f 29/40/103 10/10/104 9/9/105
f 23/23/106 24/24/107 29/41/108
f 31/45/109 25/25/110 4/32/111
f 11/11/112 31/44/113 4/4/114
f 3/3/115 31/44/116 10/10/117
f 24/24/118 25/25/119 31/45/120
f 32/47/121 26/26/122 5/33/123
f 12/12/124 32/46/125 5/5/126
f 4/4/127 32/46/128 11/11/129
f 25/25/130 26/26/131 32/47/132
f 33/49/133 27/27/134 6/34/135
f 13/13/136 33/48/137 6/6/138
f 5/5/139 33/48/140 12/12/141
f 26/26/142 27/27/143 33/49/144
f 34/51/145 28/28/146 7/35/147
f 13/13/148 34/50/149 14/14/150
f 14/14/151 34/50/152 7/7/153
f 27/27/154 28/28/155 34/51/156
f 1/1/157 30/42/158 8/8/159
f 22/22/160 30/43/161 1/29/162
f 7/7/163 28/36/164 14/14/165
f 22/38/166 8/8/167 15/39/168
